<?xml version="1.0" encoding="UTF-8"?>
<svg version="1.1" xmlns="http://www.w3.org/2000/svg" width="500" height="500">
<path d="M0 0 C2.93544006 -0.36749268 2.93544006 -0.36749268 6.75024414 -0.35644531 C7.44499344 -0.35848969 8.13974274 -0.36053406 8.85554504 -0.36264038 C11.16567884 -0.3656607 13.4751064 -0.34710823 15.78515625 -0.328125 C17.40066858 -0.32506431 19.01618355 -0.32319055 20.63169861 -0.32244873 C24.03231803 -0.31783498 27.43270209 -0.30338816 30.83325195 -0.28125 C35.14293159 -0.25330488 39.4524235 -0.24207274 43.7621851 -0.2375679 C47.91569862 -0.23233983 52.06916749 -0.21783518 56.22265625 -0.203125 C56.99372271 -0.20124428 57.76478916 -0.19936356 58.55922127 -0.19742584 C66.82063643 -0.17145295 75.05448347 -0.0119078 83.3034668 0.46289062 C84.35509679 0.52312471 84.35509679 0.52312471 85.42797184 0.58457565 C100.8788849 1.55911352 118.60348287 6.45775995 131 16 C131 16.66 131 17.32 131 18 C131.73605469 18.2475 132.47210938 18.495 133.23046875 18.75 C136.26353941 20.11894585 137.99790209 21.62873585 140.3125 24 C141.00988281 24.70125 141.70726562 25.4025 142.42578125 26.125 C144 28 144 28 144 30 C144.66 30 145.32 30 146 30 C146.99 32.475 146.99 32.475 148 35 C148.66 35 149.32 35 150 35 C163.92312066 61.43828531 166.41568758 87.40413311 158.0625 116.0625 C156.45984856 120.98802336 154.49101219 125.46279923 152 130 C151.34 130 150.68 130 150 130 C149.90460938 130.56332031 149.80921875 131.12664062 149.7109375 131.70703125 C146.56319019 141.85938109 134.93171116 150.41917335 125.984375 155.234375 C122.0394946 157.26402686 118.05133715 159.19214525 114 161 C112.48485558 161.70448524 112.48485558 161.70448524 110.93910217 162.42320251 C96.79439609 168.44609747 80.93331333 168.57591251 65.83203125 168.42578125 C63.89003335 168.42084062 61.94803063 168.41755267 60.00602722 168.41581726 C55.98668587 168.40826642 51.96771214 168.3879616 47.94848633 168.35668945 C42.78803009 168.31660924 37.62780809 168.29898951 32.46721363 168.28938007 C27.52628784 168.27945374 22.58541916 168.25959028 17.64453125 168.23828125 C16.70308573 168.2348855 15.76164021 168.23148975 14.79166603 168.2279911 C12.15246226 168.21648588 9.51341086 168.19798902 6.87426758 168.17700195 C6.08641876 168.17431305 5.29856995 168.17162415 4.48684692 168.16885376 C-0.88506225 168.11493775 -0.88506225 168.11493775 -2 167 C-2.1002093 164.72052208 -2.13081303 162.43792865 -2.1328125 160.15625 C-2.13376923 159.47195923 -2.13472595 158.78766846 -2.13571167 158.0826416 C-2.1363933 156.63338123 -2.13454023 155.18411782 -2.13037109 153.73486328 C-2.12502252 151.50937072 -2.1303166 149.28407999 -2.13671875 147.05859375 C-2.13605797 145.65364539 -2.1347768 144.24869715 -2.1328125 142.84375 C-2.13168457 141.55662109 -2.13055664 140.26949219 -2.12939453 138.94335938 C-2 136 -2 136 -1 135 C3.62 135 8.24 135 13 135 C13 101.34 13 67.68 13 33 C8.38 33 3.76 33 -1 33 C-2.76520838 27.70437486 -2.18464038 22.04194404 -2.1875 16.5 C-2.19974609 15.25089844 -2.21199219 14.00179687 -2.22460938 12.71484375 C-2.22654297 11.51988281 -2.22847656 10.32492188 -2.23046875 9.09375 C-2.23457764 7.99740234 -2.23868652 6.90105469 -2.24291992 5.77148438 C-2 3 -2 3 0 0 Z M64 33 C63.9768791 46.15149024 63.95908621 59.30297569 63.94818783 72.45448208 C63.94295844 78.56056369 63.9358598 84.66663144 63.92456055 90.77270508 C63.91373363 96.66005147 63.90772358 102.54738449 63.90512276 108.43474007 C63.90326815 110.68632277 63.89964687 112.93790469 63.89426994 115.18948174 C63.88706211 118.33133427 63.88600895 121.47313083 63.88647461 124.61499023 C63.88287933 125.55581955 63.87928406 126.49664886 63.87557983 127.46598816 C63.46306285 131.55617471 63.46306285 131.55617471 65 135 C73.95213332 136.12362167 81.45159547 133.4491409 89.25 129.25 C99.00897521 121.26538392 104.39786115 110.50404918 106 98 C107.68629168 80.69332226 108.69291479 61.3402431 98.125 46.4375 C92.86865666 40.27166214 86.9740119 35.08971286 79 33 C76.36795981 32.8891952 73.81403059 32.84534137 71.1875 32.8984375 C70.49462891 32.90576904 69.80175781 32.91310059 69.08789062 32.9206543 C67.39182737 32.9396619 65.69588282 32.96880216 64 33 Z " fill="#F9F9F9" transform="translate(37,107)"/>
<path d="M0 0 C1.58041407 0.00138269 1.58041407 0.00138269 3.1927557 0.00279331 C4.39735439 0.00141865 5.60195309 0.00004398 6.84305477 -0.00137234 C8.19008566 0.00216726 9.53711629 0.00580208 10.88414669 0.00952244 C12.29314325 0.00980431 13.70213996 0.00964658 15.11113644 0.00907993 C18.94774448 0.00879194 22.78432152 0.01468889 26.62092233 0.02165389 C30.62613758 0.0278872 34.63135348 0.02849121 38.63657284 0.0296793 C46.22618821 0.03279268 53.81578926 0.04100616 61.40539831 0.05102879 C70.04370741 0.06218971 78.68201718 0.06770032 87.32033169 0.07272422 C105.09478697 0.08318877 122.8692226 0.10153434 140.64366817 0.12304783 C140.64366817 18.27304783 140.64366817 36.42304783 140.64366817 55.12304783 C136.25659854 56.00046176 132.28901355 56.28402666 127.85851192 56.29101658 C126.75135578 56.29600918 126.75135578 56.29600918 125.62183285 56.30110264 C124.0678383 56.30614657 122.51383301 56.30851175 120.95983028 56.30835056 C118.5853822 56.31054394 116.211394 56.3287448 113.83702755 56.3476572 C112.32335726 56.3505903 110.80968477 56.35257566 109.29601192 56.35351658 C108.58863384 56.3607021 107.88125576 56.36788761 107.15244198 56.37529087 C103.16447656 56.35682009 101.33033042 55.96637895 97.64366817 54.12304783 C97.64366817 47.19304783 97.64366817 40.26304783 97.64366817 33.12304783 C86.09366817 33.12304783 74.54366817 33.12304783 62.64366817 33.12304783 C62.64366817 43.68304783 62.64366817 54.24304783 62.64366817 65.12304783 C77.16366817 65.12304783 91.68366817 65.12304783 106.64366817 65.12304783 C108.1415622 68.11883587 107.64449473 70.76712202 107.52257442 74.09961033 C107.4794714 75.35338474 107.43636837 76.60715916 107.39195919 77.89892673 C107.29999264 80.29924168 107.29999264 80.29924168 107.20616817 82.74804783 C107.02054317 87.82179783 106.83491817 92.89554783 106.64366817 98.12304783 C92.12366817 98.12304783 77.60366817 98.12304783 62.64366817 98.12304783 C62.64366817 110.00304783 62.64366817 121.88304783 62.64366817 134.12304783 C74.19366817 134.12304783 85.74366817 134.12304783 97.64366817 134.12304783 C97.56459115 127.63093707 97.56459115 127.63093707 97.46349239 121.13916111 C97.45849728 120.33204685 97.45350216 119.52493259 97.44835567 118.69336033 C97.43788204 117.86594334 97.42740841 117.03852634 97.41661739 116.18603611 C97.64366817 114.12304783 97.64366817 114.12304783 99.64366817 112.12304783 C102.73222594 112.01837017 105.72519201 112.03437753 108.80773067 112.14648533 C109.61170284 112.16815769 110.41567501 112.18983006 111.24400997 112.21215916 C114.25256282 112.29627289 117.26059498 112.39824311 120.26866817 112.49804783 C126.99241817 112.70429783 133.71616817 112.91054783 140.64366817 113.12304783 C140.64366817 130.94304783 140.64366817 148.76304783 140.64366817 167.12304783 C137.99575178 168.44700603 136.0165986 168.24593675 133.05025387 168.24330235 C131.86110882 168.24467701 130.67196377 168.24605167 129.44678402 168.24746799 C128.13552044 168.24387272 126.82425686 168.24027744 125.47325802 168.23657322 C124.08381814 168.23629126 122.69437811 168.23644925 121.30493832 168.23701572 C117.52623866 168.23730337 113.74757057 168.23141196 109.96887827 168.22444177 C106.02239262 168.21820275 102.07590629 168.21760399 98.12941647 168.21641636 C90.65316537 168.21330466 83.17692886 168.20509345 75.70068419 168.19506687 C67.19052362 168.18390072 58.68036236 168.17839401 50.17019629 168.17337143 C32.66134515 168.16291071 15.1525082 168.14531438 -2.35633183 168.12304783 C-4.50969653 163.81631841 -3.54218661 158.04979778 -3.54163456 153.26464939 C-3.54382335 151.13130918 -3.56199102 148.99848417 -3.5809412 146.86523533 C-3.58387476 145.5136746 -3.58585981 144.16211141 -3.58680058 142.81054783 C-3.59090946 141.57691502 -3.59501835 140.3432822 -3.59925175 139.07226658 C-3.35633183 136.12304783 -3.35633183 136.12304783 -1.35633183 134.12304783 C2.93366817 134.12304783 7.22366817 134.12304783 11.64366817 134.12304783 C11.64366817 100.79304783 11.64366817 67.46304783 11.64366817 33.12304783 C7.35366817 33.12304783 3.06366817 33.12304783 -1.35633183 33.12304783 C-3.35633183 31.12304783 -3.35633183 31.12304783 -3.59925175 28.15795994 C-3.59514286 26.91796238 -3.59103397 25.67796482 -3.58680058 24.40039158 C-3.58634235 23.7397118 -3.58588413 23.07903202 -3.58541203 22.39833164 C-3.58239104 21.00210873 -3.57450924 19.60588916 -3.56214237 18.20971775 C-3.54387379 16.06547284 -3.54163276 13.92165934 -3.5418787 11.7773447 C-3.49981813 0.18276077 -3.49981813 0.18276077 0 0 Z " fill="#F8F8F8" transform="translate(316.35633182525635,107.87695217132568)"/>
<path d="M0 0 C0.82862045 0.00359528 1.65724091 0.00719055 2.51097107 0.01089478 C3.81329178 0.01067574 3.81329178 0.01067574 5.141922 0.01045227 C8.02594967 0.01115171 10.9099136 0.01894554 13.79393005 0.02676392 C15.78790247 0.02862799 17.78187535 0.03005194 19.77584839 0.03105164 C25.03498082 0.03487769 30.29408583 0.04470871 35.5532074 0.05575562 C40.91534555 0.06596786 46.27748811 0.07054885 51.63963318 0.07559204 C62.16894213 0.0863309 72.69823069 0.10340837 83.2275238 0.12442017 C84.6827848 3.03494216 84.35738268 5.59998427 84.3603363 8.84707642 C84.36129303 9.5077562 84.36224976 10.16843597 84.36323547 10.84913635 C84.36391596 12.24534195 84.36207081 13.64155072 84.3578949 15.03775024 C84.35253623 17.1819463 84.35784859 19.32593369 84.36424255 21.47012329 C84.36358192 22.82494146 84.36230105 24.17975951 84.3603363 25.53457642 C84.35920837 26.77344604 84.35808044 28.01231567 84.35691833 29.28872681 C84.2275238 32.12442017 84.2275238 32.12442017 83.2275238 33.12442017 C81.81182257 33.21093627 80.3919288 33.23146921 78.97361755 33.22207642 C78.11961365 33.21885376 77.26560974 33.2156311 76.38572693 33.21231079 C75.03897888 33.19974243 75.03897888 33.19974243 73.6650238 33.18692017 C72.76332458 33.18240845 71.86162537 33.17789673 70.93260193 33.17324829 C68.69751067 33.16142241 66.46254944 33.14494237 64.2275238 33.12442017 C64.2284456 33.72996294 64.22936739 34.33550571 64.23031712 34.95939827 C64.25248404 49.75200225 64.26898953 64.54460462 64.27933598 79.33722115 C64.28447352 86.49106572 64.2914673 93.64489915 64.30296326 100.79873657 C64.31298826 107.04023334 64.31939567 113.28172202 64.3216123 119.52322662 C64.32290624 122.82239208 64.3264474 126.1215293 64.33325386 129.42068863 C64.43770468 182.17696033 64.43770468 182.17696033 47.6025238 199.87051392 C33.85832696 212.91393756 16.15892174 215.61863465 -2.01075745 215.32363892 C-14.97218797 214.92470839 -14.97218797 214.92470839 -17.7724762 212.12442017 C-17.8608729 209.74873497 -17.88777925 207.40233343 -17.87013245 205.02676392 C-17.8687175 204.31790543 -17.86730255 203.60904694 -17.86584473 202.87870789 C-17.86023062 200.60640304 -17.84767583 198.33419541 -17.8349762 196.06192017 C-17.82996301 194.52481221 -17.82539979 192.98770272 -17.82130432 191.45059204 C-17.81025662 187.67516375 -17.79298261 183.89980846 -17.7724762 180.12442017 C-16.83146057 180.21981079 -15.89044495 180.31520142 -14.9209137 180.41348267 C-13.67567932 180.52434204 -12.43044495 180.63520142 -11.1474762 180.74942017 C-9.91771057 180.86543579 -8.68794495 180.98145142 -7.4209137 181.10098267 C-2.56498746 181.13217705 0.79086813 179.99309569 4.9150238 177.49942017 C16.28544904 165.82168614 12.57518164 139.39912817 12.6415863 124.62832642 C12.66032543 121.98174569 12.6798084 119.33518077 12.70027161 116.68861389 C12.74671671 110.47364442 12.78362445 104.25865794 12.81694448 98.04360574 C12.85541093 90.95748592 12.90475517 83.87145419 12.95492864 76.78540909 C13.05773754 62.2318142 13.14716079 47.67815614 13.2275238 33.12442017 C12.03514099 33.15922485 10.84275818 33.19402954 9.61424255 33.22988892 C8.04785038 33.2580277 6.48144299 33.28532776 4.9150238 33.31192017 C3.73649841 33.34962524 3.73649841 33.34962524 2.53416443 33.38809204 C1.77684021 33.39776001 1.01951599 33.40742798 0.23924255 33.41738892 C-0.45725403 33.43309937 -1.15375061 33.44880981 -1.87135315 33.46499634 C-4.37894905 33.01577375 -5.24446902 32.12928323 -6.7724762 30.12442017 C-7.12892151 27.13760376 -7.12892151 27.13760376 -7.1006012 23.52285767 C-7.09286682 21.58152954 -7.09286682 21.58152954 -7.0849762 19.60098267 C-7.0746637 18.92841431 -7.0643512 18.25584595 -7.0537262 17.56289673 C-7.02248328 15.49988792 -7.01274612 13.43764244 -7.0068512 11.37442017 C-6.91613864 0.01267253 -6.91613864 0.01267253 0 0 Z " fill="#F9F8F8" transform="translate(220.77247619628906,107.87557983398438)"/>
</svg>
